#!OML:ASF I:\golf\golf\golf 2\Subject 1\2002-09-07\Subject1.ASF
:FULLY-SPECIFIED
:DEGREES
235
root -0.830712 17.0051 -5.4017 30.0104 12.1858 -2.11947
lowerback 33.1734 6.27477 1.69094
upperback 14.4343 8.73716 8.20325
thorax -2.17487 4.0121 4.91214
lowerneck -21.5504 -5.62147 -2.80622
upperneck 20.3336 -5.11654 -6.71321
head 9.93741 -3.34597 -2.65151
rclavicle -3.49861e-014 0
rhumerus 35.5411 9.81555 -58.9035
rradius 28.694
rwrist -10.2493
rhand -34.4691 19.0693
rfingers 7.12502
rthumb -7.63241 -10.773
lclavicle -3.49861e-014 0
lhumerus -19.0491 -52.6524 90.2074
lradius 71.9542
lwrist -9.11591
lhand -44.7826 18.3625
lfingers 7.12502
lthumb -17.5744 47.5882
rfemur -66.9207 -14.1346 33.3791
rtibia 49.9281
rfoot -9.74889 -9.71682
rtoes 1.65715
lfemur -65.6395 4.60958 -12.1203
ltibia 34.7548
lfoot -7.72999 -9.38363
ltoes -20.2477
236
root -0.794052 16.9617 -5.38291 30.3265 12.1264 -2.22511
lowerback 33.614 6.35151 1.91593
upperback 14.5624 8.89552 8.29017
thorax -2.19038 4.08347 4.81237
lowerneck -21.5544 -5.73656 -2.96954
upperneck 20.1475 -5.24391 -6.66098
head 9.87557 -3.40842 -2.61877
rclavicle 1.27222e-014 -4.92986e-014
rhumerus 36.511 8.94392 -58.7623
rradius 28.2331
rwrist -9.83726
rhand -34.3334 18.7993
rfingers 7.12502
rthumb -7.50139 -11.0477
lclavicle 1.27222e-014 -4.92986e-014
lhumerus -18.7503 -52.4883 89.9979
lradius 72.4893
lwrist -9.2979
lhand -44.9304 18.3587
lfingers 7.12502
lthumb -17.7167 47.5716
rfemur -67.6998 -14.3431 33.6931
rtibia 50.6382
rfoot -10.0315 -9.41632
rtoes 1.25498
lfemur -66.2872 4.78469 -12.2477
ltibia 35.6802
lfoot -7.23011 -10.0106
ltoes -18.838
237
root -0.757583 16.9206 -5.36417 30.6726 12.0039 -2.31989
lowerback 34.0041 6.42044 2.07541
upperback 14.6793 9.01844 8.28966
thorax -2.18761 4.13858 4.67074
lowerneck -21.5998 -5.82068 -2.99957
upperneck 19.9674 -5.36871 -6.61542
head 9.81831 -3.46115 -2.61087
rclavicle -5.40694e-014 -4.77083e-014
rhumerus 37.4567 7.91669 -58.975
rradius 27.7953
rwrist -9.24407
rhand -33.9747 18.7006
rfingers 7.12502
rthumb -7.15513 -11.1585
lclavicle -5.40694e-014 -4.77083e-014
lhumerus -18.4477 -52.3274 89.5945
lradius 73.048
lwrist -9.57034
lhand -45.2181 17.7686
lfingers 7.12502
lthumb -17.9935 46.9563
rfemur -68.4809 -14.4381 33.9228
rtibia 51.3447
rfoot -10.345 -9.13831
rtoes 0.596511
lfemur -67.0571 5.12661 -12.5676
ltibia 36.6832
lfoot -6.64341 -10.6317
ltoes -16.3168
238
root -0.724307 16.8808 -5.34607 31.0591 12.043 -2.32393
lowerback 34.4369 6.4279 2.29073
upperback 14.735 9.09328 8.29059
thorax -2.25281 4.17296 4.51096
lowerneck -21.4521 -5.95324 -2.98283
upperneck 19.614 -5.58537 -6.61173
head 9.65954 -3.5536 -2.62372
rclavicle -9.54166e-015 2.18663e-014
rhumerus 38.3535 6.89918 -59.1984
rradius 27.3181
rwrist -8.88682
rhand -33.627 18.8101
rfingers 7.12502
rthumb -6.81955 -11.0601
lclavicle -9.54166e-015 2.18663e-014
lhumerus -18.2549 -52.1401 89.1902
lradius 73.72
lwrist -10.0467
lhand -45.2824 17.5424
lfingers 7.12502
lthumb -18.0554 46.7244
rfemur -69.2994 -14.6033 34.0941
rtibia 52.0584
rfoot -10.6818 -8.96052
rtoes 0.610168
lfemur -67.9928 5.2944 -12.8908
ltibia 37.6454
lfoot -5.92415 -11.09
ltoes -13.2407
239
root -0.692367 16.8403 -5.3265 31.4968 12.2553 -2.25208
lowerback 34.827 6.39228 2.58579
upperback 14.7869 9.1481 8.35863
thorax -2.30466 4.20004 4.39032
lowerneck -21.3571 -6.11358 -3.07906
upperneck 19.32 -5.80926 -6.55537
head 9.53791 -3.65295 -2.6055
rclavicle 3.18055e-014 -4.57205e-014
rhumerus 39.3091 5.90556 -59.2335
rradius 26.7899
rwrist -8.77946
rhand -33.4427 18.7712
rfingers 7.12502
rthumb -6.64155 -11.1047
lclavicle 3.18055e-014 -4.57205e-014
lhumerus -18.1169 -52.024 88.8808
lradius 74.4833
lwrist -10.3621
lhand -45.1894 17.5632
lfingers 7.12502
lthumb -17.9659 46.7534
rfemur -70.181 -14.8669 34.2353
rtibia 52.7833
rfoot -10.9939 -8.93012
rtoes 0.871707
lfemur -69.0538 5.26967 -13.1779
ltibia 38.4899
lfoot -5.4454 -11.3469
ltoes -11.6849
240
root -0.661723 16.8005 -5.30259 31.9672 12.497 -2.10654
lowerback 35.1396 6.35906 2.8151
upperback 14.8912 9.18238 8.42762
thorax -2.27943 4.21702 4.32103
lowerneck -21.5691 -6.23913 -3.14655
upperneck 19.1687 -5.97698 -6.47136
head 9.52286 -3.72657 -2.59217
rclavicle -6.36111e-015 2.0276e-014
rhumerus 40.3818 4.92915 -59.1962
rradius 26.2284
rwrist -8.7368
rhand -33.3504 18.7568
rfingers 7.12502
rthumb -6.55253 -11.1218
lclavicle -6.36111e-015 2.0276e-014
lhumerus -17.874 -52.0257 88.471
lradius 75.3381
lwrist -10.4221
lhand -45.0213 17.1274
lfingers 7.12502
lthumb -17.8041 46.3323
rfemur -71.0772 -15.1664 34.3183
rtibia 53.5375
rfoot -11.3366 -8.94879
rtoes 0.473727
lfemur -70.1144 5.23244 -13.567
ltibia 39.1994
lfoot -5.25058 -11.6283
ltoes -11.772
241
root -0.633806 16.7587 -5.27565 32.4723 12.7357 -1.85598
lowerback 35.5255 6.33502 2.96933
upperback 14.8619 9.2237 8.50444
thorax -2.43755 4.23212 4.27931
lowerneck -21.3106 -6.44183 -3.37771
upperneck 18.7888 -6.25652 -6.29281
head 9.35148 -3.84489 -2.50853
rclavicle -1.59028e-014 -4.33351e-014
rhumerus 41.185 4.06348 -59.1681
rradius 25.6955
rwrist -8.79591
rhand -33.3161 19.0262
rfingers 7.12502
rthumb -6.51942 -10.8534
lclavicle -1.59028e-014 -4.33351e-014
lhumerus -18.0508 -52.2178 88.3895
lradius 76.2847
lwrist -10.3438
lhand -44.7226 16.4547
lfingers 7.12502
lthumb -17.5167 45.6856
rfemur -72.0026 -15.4919 34.3184
rtibia 54.3341
rfoot -11.7156 -8.94301
rtoes 0.291294
lfemur -71.1257 5.18956 -14.0921
ltibia 39.8211
lfoot -4.9643 -12.1516
ltoes -12.2709
